<svg width="22" height="23" viewBox="0 0 22 23" fill="none" xmlns="http://www.w3.org/2000/svg">
<path d="M6.36307 5.68172C6.36307 3.09611 8.45912 1.00004 11.0447 1.00004C12.2898 0.994765 13.4857 1.48568 14.368 2.36424C15.2503 3.2428 15.7463 4.43662 15.7463 5.68172" stroke="black" stroke-width="1.62544" stroke-linecap="round" stroke-linejoin="round"/>
<path d="M7.83121 10.5613H7.8811" stroke="black" stroke-width="1.62544" stroke-linecap="round" stroke-linejoin="round"/>
<path d="M14.1492 10.5613H14.1991" stroke="black" stroke-width="1.62544" stroke-linecap="round" stroke-linejoin="round"/>
<path fill-rule="evenodd" clip-rule="evenodd" d="M6.51203 21.8295H15.558C18.8807 21.8295 21.4299 20.6293 20.7059 15.7989L19.8627 9.25243C19.4164 6.84216 17.879 5.91971 16.53 5.91971H5.50031C4.13151 5.91971 2.68337 6.9116 2.16759 9.25243L1.32449 15.7989C0.709532 20.0838 3.18923 21.8295 6.51203 21.8295Z" stroke="black" stroke-width="1.62544" stroke-linecap="round" stroke-linejoin="round"/>
</svg>
