<svg width="22" height="23" viewBox="0 0 22 23" fill="none" xmlns="http://www.w3.org/2000/svg">
<path d="M6.3631 5.68172C6.3631 3.09611 8.45915 1.00004 11.0447 1.00004C12.2898 0.994765 13.4857 1.48568 14.368 2.36424C15.2503 3.2428 15.7463 4.43662 15.7463 5.68172" stroke="#B6B6B6" stroke-width="1.62544" stroke-linecap="round" stroke-linejoin="round"/>
<path d="M7.83124 10.5613H7.88113" stroke="#080808" stroke-width="1.62544" stroke-linecap="round" stroke-linejoin="round"/>
<path d="M14.1492 10.5613H14.1991" stroke="#080808" stroke-width="1.62544" stroke-linecap="round" stroke-linejoin="round"/>
<path fill-rule="evenodd" clip-rule="evenodd" d="M6.51206 21.9098H15.558C18.8808 21.9098 21.4299 20.7096 20.7059 15.8792L19.8627 9.33272C19.4164 6.92245 17.879 6 16.53 6H5.50034C4.13154 6 2.6834 6.99189 2.16762 9.33272L1.32452 15.8792C0.70956 20.1641 3.18926 21.9098 6.51206 21.9098Z" stroke="#080808" stroke-width="1.62544" stroke-linecap="round" stroke-linejoin="round"/>
</svg>
