<svg width="25" height="24" viewBox="0 0 25 24" fill="none" xmlns="http://www.w3.org/2000/svg">
<path fill-rule="evenodd" clip-rule="evenodd" d="M17.2692 0.82162L16.7148 0.278931L16.1553 0.816385L9.01741 7.67353C8.69879 7.97962 8.68862 8.48605 8.99471 8.80467C9.3008 9.12329 9.80723 9.13346 10.1259 8.82737L16.0432 3.14279C16.0086 5.9537 16.0424 8.4143 16.0712 10.515C16.0904 11.9154 16.1074 13.1559 16.1005 14.2335C16.0815 17.211 15.8772 18.9865 15.2282 20.1026C14.6426 21.1095 13.5987 21.7147 11.3454 21.9925C9.07314 22.2727 5.80178 22.1927 1.02874 22.0224C0.587191 22.0066 0.216472 22.3518 0.200714 22.7933C0.184956 23.2349 0.530126 23.6056 0.971672 23.6214C5.69863 23.7901 9.11477 23.8796 11.5412 23.5805C13.9865 23.279 15.6523 22.5561 16.6113 20.9069C17.5069 19.3668 17.6819 17.158 17.7005 14.2438C17.7079 13.0887 17.6902 11.8235 17.6704 10.4128V10.4127C17.6423 8.40968 17.6101 6.11355 17.6399 3.42355L23.1549 8.82213C23.4706 9.1312 23.9771 9.1258 24.2862 8.81007C24.5952 8.49434 24.5898 7.98783 24.2741 7.67876L17.2692 0.82162Z" fill="black"/>
</svg>
