<svg width="28" height="28" viewBox="0 0 28 28" fill="none" xmlns="http://www.w3.org/2000/svg">
<path d="M16.1969 7.01538L24.6367 7.01538" stroke="black" stroke-width="1.75" stroke-linecap="round" stroke-linejoin="round"/>
<path fill-rule="evenodd" clip-rule="evenodd" d="M3.08301 6.87582C3.08301 4.9428 4.64999 3.37582 6.58301 3.37582C8.51603 3.37582 10.083 4.9428 10.083 6.87582C10.083 8.8103 8.51603 10.3758 6.58301 10.3758C4.64999 10.3758 3.08301 8.8103 3.08301 6.87582Z" stroke="#B7B7B7" stroke-width="1.75" stroke-linecap="round" stroke-linejoin="round"/>
<path d="M11.8034 20.6941L3.36221 20.6941" stroke="black" stroke-width="1.75" stroke-linecap="round" stroke-linejoin="round"/>
<path fill-rule="evenodd" clip-rule="evenodd" d="M24.6367 20.554C24.6367 18.6195 23.0697 17.054 21.1367 17.054C19.2037 17.054 17.6367 18.6195 17.6367 20.554C17.6367 22.487 19.2037 24.054 21.1367 24.054C23.0697 24.054 24.6367 22.487 24.6367 20.554Z" stroke="#B7B7B7" stroke-width="1.75" stroke-linecap="round" stroke-linejoin="round"/>
</svg>
