<svg width="19" height="23" viewBox="0 0 19 23" fill="none" xmlns="http://www.w3.org/2000/svg">
<path d="M9.67274 11.5114C12.5754 11.5114 14.9285 9.15837 14.9285 6.25571C14.9285 3.35306 12.5754 1 9.67274 1C6.77009 1 4.41702 3.35306 4.41702 6.25571C4.41702 9.15837 6.77009 11.5114 9.67274 11.5114Z" stroke="#B6B6B6" stroke-width="1.64996" stroke-linecap="round" stroke-linejoin="round"/>
<path fill-rule="evenodd" clip-rule="evenodd" d="M1.33632 18.8214C1.3349 18.4519 1.41753 18.0869 1.57796 17.7541C2.08138 16.7473 3.50103 16.2137 4.67904 15.972C5.52861 15.7907 6.38993 15.6695 7.25655 15.6095C8.86101 15.4685 10.4748 15.4685 12.0793 15.6095C12.9459 15.6703 13.8072 15.7914 14.6569 15.972C15.8349 16.2137 17.2545 16.6969 17.7579 17.7541C18.0806 18.4325 18.0806 19.2202 17.7579 19.8987C17.2545 20.9559 15.8349 21.4391 14.6569 21.6707C13.8083 21.8595 12.9466 21.984 12.0793 22.0432C10.7734 22.154 9.46138 22.1741 8.15263 22.1037C7.85058 22.1037 7.55861 22.1037 7.25655 22.0432C6.39248 21.9848 5.53416 21.8603 4.6891 21.6707C3.50103 21.4391 2.09145 20.9559 1.57796 19.8987C1.41836 19.562 1.3358 19.1939 1.33632 18.8214Z" stroke="#080808" stroke-width="1.64996" stroke-linecap="round" stroke-linejoin="round"/>
</svg>
