<svg width="19" height="23" viewBox="0 0 19 23" fill="none" xmlns="http://www.w3.org/2000/svg">
<path d="M9.67228 11.5114C12.5749 11.5114 14.928 9.15837 14.928 6.25571C14.928 3.35306 12.5749 1 9.67228 1C6.76963 1 4.41656 3.35306 4.41656 6.25571C4.41656 9.15837 6.76963 11.5114 9.67228 11.5114Z" stroke="#141414" stroke-width="1.64996" stroke-linecap="round" stroke-linejoin="round"/>
<path fill-rule="evenodd" clip-rule="evenodd" d="M1.33589 18.8214C1.33448 18.4519 1.41711 18.0869 1.57754 17.7541C2.08095 16.7473 3.5006 16.2137 4.67861 15.972C5.52819 15.7907 6.3895 15.6695 7.25613 15.6095C8.86058 15.4685 10.4744 15.4685 12.0789 15.6095C12.9455 15.6703 13.8067 15.7914 14.6565 15.972C15.8344 16.2137 17.2541 16.6969 17.7575 17.7541C18.0801 18.4325 18.0801 19.2202 17.7575 19.8987C17.2541 20.9559 15.8344 21.4391 14.6565 21.6707C13.8078 21.8595 12.9462 21.984 12.0789 22.0432C10.773 22.154 9.46095 22.1741 8.1522 22.1037C7.85016 22.1037 7.55818 22.1037 7.25613 22.0432C6.39205 21.9848 5.53373 21.8603 4.68867 21.6707C3.5006 21.4391 2.09103 20.9559 1.57754 19.8987C1.41793 19.562 1.33538 19.1939 1.33589 18.8214Z" stroke="#141414" stroke-width="1.64996" stroke-linecap="round" stroke-linejoin="round"/>
</svg>
