<svg width="19" height="20" viewBox="0 0 19 20" fill="none" xmlns="http://www.w3.org/2000/svg">
<path fill-rule="evenodd" clip-rule="evenodd" d="M10.1161 2.24323e-07H8.8811C8.1855 2.24323e-07 7.5186 0.27155 7.02796 0.75457C6.59307 1.1827 6.32704 1.74716 6.27575 2.34781L6.26724 2.54181C6.25775 3.17352 5.74742 3.66634 5.12101 3.66628C4.97895 3.6648 4.83141 3.63238 4.69559 3.5713L4.56235 3.50171C3.33155 2.81017 1.73128 3.23376 1.00918 4.46166L0.35989 5.50695C-0.33051 6.68048 0.0100105 8.1548 1.12449 8.9141L1.27948 9.0115C1.66149 9.2284 1.87987 9.599 1.87987 10C1.87987 10.3688 1.69491 10.7137 1.38645 10.9228L1.28115 10.9875C0.126511 11.6412 -0.328429 13.0841 0.25197 14.2844L0.336791 14.4442L0.97412 15.5224C1.30539 16.1083 1.87306 16.5497 2.54445 16.7366C3.13953 16.9023 3.7746 16.8565 4.33762 16.6084L4.51565 16.5213C4.81529 16.3516 5.12484 16.3109 5.41538 16.3871C5.70591 16.4633 5.95336 16.65 6.1027 16.9057C6.18504 17.0418 6.23337 17.1822 6.25063 17.3277L6.25912 17.4753C6.25765 18.8493 7.43219 20 8.8811 20H10.1164C11.4845 20 12.62 18.9703 12.731 17.6414L12.7391 17.4698C12.7383 17.1379 12.8582 16.8524 13.0727 16.6422C13.2872 16.432 13.5786 16.3146 13.882 16.316C14.0214 16.3199 14.1746 16.3541 14.3166 16.4163L14.4527 16.485C15.6011 17.1344 17.1058 16.8008 17.8808 15.7089L17.9803 15.557L18.6399 14.4804C18.995 13.8833 19.0912 13.1817 18.9119 12.523C18.753 11.9391 18.3887 11.4297 17.8843 11.0841L17.7174 10.9793C17.4272 10.8149 17.236 10.5708 17.158 10.2844C17.08 9.998 17.1218 9.6929 17.2742 9.4368C17.3585 9.2926 17.4706 9.1726 17.6051 9.0807L17.8624 8.9223C18.9043 8.2293 19.2945 6.86519 18.7461 5.71842L18.6892 5.60674C18.6769 5.57762 18.6627 5.54922 18.6465 5.52174L18.0333 4.47928C17.3511 3.31918 15.8759 2.86897 14.646 3.4355L14.4821 3.51839C14.1882 3.68688 13.8779 3.72947 13.5857 3.65514C13.2935 3.58081 13.0435 3.39567 12.8908 3.14055C12.8124 3.01116 12.7641 2.87079 12.7468 2.72535L12.7383 2.57766C12.7599 1.94968 12.4925 1.27681 11.9983 0.77871C11.5041 0.28061 10.8251 -0.000289776 10.1161 2.24323e-07ZM8.8811 1.44774H10.1164C10.4264 1.44761 10.7229 1.57029 10.9387 1.78783C11.1546 2.00537 11.2713 2.29923 11.2624 2.60249L11.2756 2.85454C11.3203 3.23984 11.4357 3.57504 11.6181 3.87616C11.9673 4.45965 12.5423 4.88546 13.2143 5.05641C13.8863 5.22736 14.6001 5.12941 15.1983 4.78415L15.3015 4.73265L15.4125 4.6891C15.9009 4.52853 16.4764 4.73175 16.753 5.20208L17.3378 6.19726L17.3505 6.22529L17.4212 6.35884C17.6578 6.85504 17.4601 7.4827 16.948 7.77613L16.7873 7.87532C16.4464 8.1073 16.1849 8.3872 15.9946 8.7126C15.6471 9.2971 15.5509 9.9987 15.7302 10.6574C15.8932 11.2563 16.2716 11.7748 16.7922 12.1195L17.0645 12.2882C17.2566 12.4207 17.415 12.6422 17.4841 12.896C17.5621 13.1824 17.5203 13.4875 17.368 13.7436L16.7236 14.7957L16.6511 14.9067C16.3529 15.3258 15.7647 15.4814 15.2687 15.2682L14.9528 15.11C14.6004 14.9547 14.2556 14.8778 13.9053 14.8686C13.1914 14.865 12.5212 15.1351 12.0279 15.6185C11.5345 16.1019 11.2588 16.7585 11.2621 17.4421L11.2565 17.5511C11.2099 18.1023 10.7137 18.5523 10.1164 18.5523H8.8811C8.2905 18.5523 7.8043 18.1145 7.7421 17.552L7.7219 17.1985C7.6772 16.8132 7.5618 16.478 7.37937 16.1768C7.04028 15.5959 6.46861 15.1645 5.79737 14.9886C5.12614 14.8126 4.41096 14.9066 3.8108 15.2497L3.70208 15.3018C3.48569 15.3964 3.20831 15.4164 2.94842 15.344C2.6552 15.2624 2.40728 15.0696 2.25952 14.8084L1.63027 13.7449L1.57398 13.6383C1.33562 13.144 1.53354 12.5163 2.04639 12.2256L2.20219 12.1296C2.93413 11.634 3.35754 10.8446 3.35754 10C3.35754 9.1429 2.92197 8.3467 2.20395 7.871L1.94324 7.70925C1.48256 7.39466 1.33377 6.75044 1.63128 6.24455L2.28057 5.19925C2.6049 4.64815 3.3038 4.46315 3.8519 4.77085L4.04427 4.87026C4.40355 5.03293 4.75588 5.11034 5.11326 5.11398C6.49969 5.11416 7.6334 4.07087 7.7368 2.7415L7.7503 2.43661C7.7706 2.20741 7.8863 1.96196 8.0753 1.77582C8.2887 1.56581 8.5786 1.44774 8.8811 1.44774ZM9.5032 6.73182C7.661 6.73182 6.16748 8.195 6.16748 10C6.16748 11.805 7.661 13.2682 9.5032 13.2682C11.3455 13.2682 12.839 11.805 12.839 10C12.839 8.195 11.3455 6.73182 9.5032 6.73182ZM9.5032 8.1796C10.5294 8.1796 11.3613 8.9946 11.3613 10C11.3613 11.0054 10.5294 11.8204 9.5032 11.8204C8.477 11.8204 7.6452 11.0054 7.6452 10C7.6452 8.9946 8.477 8.1796 9.5032 8.1796Z" fill="#151515"/>
</svg>
