<svg width="20" height="19" viewBox="0 0 20 19" fill="none" xmlns="http://www.w3.org/2000/svg">
<path fill-rule="evenodd" clip-rule="evenodd" d="M5.81204 0H14.188C17.3978 0 20 2.66116 20 5.94374V6.68592L20.0002 6.70241L20 6.71891V12.0201L20.0002 12.0366L20 12.0531V13.0563C20 16.3388 17.3978 19 14.188 19H5.81204C2.60219 19 0 16.3388 0 13.0563V5.94374C0 2.66116 2.60219 0 5.81204 0ZM18.5464 5.94374V5.95916H15.3504L15.1673 5.96431C13.4101 6.06244 12.0147 7.5491 12.0147 9.3695C12.0159 11.2531 13.5084 12.7787 15.3499 12.7798H18.5464V13.0563C18.5464 15.5179 16.595 17.5135 14.188 17.5135H5.81204C3.40498 17.5135 1.45358 15.5179 1.45358 13.0563V5.94374C1.45358 3.48214 3.40498 1.48651 5.81204 1.48651H14.188C16.595 1.48651 18.5464 3.48214 18.5464 5.94374ZM15.3508 7.44567H18.5464V11.2933H15.3504L15.2033 11.2874C14.2329 11.2102 13.4689 10.3811 13.4683 9.369C13.4683 8.3074 14.3109 7.44632 15.3508 7.44567ZM16.521 9.3084C16.521 8.8979 16.1956 8.5652 15.7942 8.5652H15.4921L15.3935 8.572C15.0388 8.6212 14.7653 8.9322 14.7653 9.3084C14.7653 9.7189 15.0907 10.0517 15.4921 10.0517H15.7942L15.8928 10.0449C16.2475 9.9957 16.521 9.6847 16.521 9.3084ZM11.0807 5.24062C11.0807 4.83013 10.7553 4.49736 10.3539 4.49736H5.12203L5.0234 4.50415C4.66866 4.55337 4.39524 4.86434 4.39524 5.24062C4.39524 5.65111 4.72063 5.98388 5.12203 5.98388H10.3539L10.4525 5.97709C10.8073 5.92788 11.0807 5.6169 11.0807 5.24062Z" fill="#151515"/>
</svg>
